<?xml version="1.0" encoding="utf-8"?>
<!-- Generator: Adobe Illustrator 21.1.0, SVG Export Plug-In . SVG Version: 6.00 Build 0)  -->
<svg version="1.1" id="Layer_1" xmlns="http://www.w3.org/2000/svg" xmlns:xlink="http://www.w3.org/1999/xlink" x="0px" y="0px"
	 viewBox="0 0 500 556" style="enable-background:new 0 0 500 556;" xml:space="preserve">
<style type="text/css">
	.st0{fill:none;stroke:#006838;}
</style>
<g>
	<path class="st0" d="M18.3,17.7C62.8,10.6,120.9,6.6,182.1,6.6c101.7,0,167.7,18.3,219.4,57.2c55.6,41.3,90.6,107.3,90.6,201.9
		c0,102.5-37.4,173.3-89,217c-56.4,46.9-142.3,69.1-247.2,69.1c-62.8,0-107.3-4-137.5-7.9V17.7z M139.9,454.8
		c10.3,2.4,27,2.4,42.1,2.4c109.7,0.8,181.2-59.6,181.2-187.6c0.8-111.3-64.4-170.1-168.5-170.1c-27,0-44.5,2.4-54.8,4.8V454.8z"/>
</g>
</svg>
